<svg width="535" height="1174" viewBox="0 0 535 1174" fill="none" xmlns="http://www.w3.org/2000/svg">
<g filter="url(#filter0_f_7_10656)">
<g filter="url(#filter1_d_7_10656)">
<path d="M127.189 704.681L127.189 166.457C127.189 129.736 141.777 94.519 167.743 68.5532C193.708 42.5874 228.926 28 265.647 28C302.368 28 337.585 42.5874 363.551 68.5532C389.517 94.519 404.104 129.736 404.104 166.457L404.104 716.212C440.01 744.373 467.04 782.285 481.957 825.409C496.874 868.534 499.046 915.044 488.214 959.372C477.381 1003.7 454.003 1043.97 420.877 1075.35C387.752 1106.73 346.283 1127.91 301.436 1136.33C285.158 1140.65 268.235 1141.99 251.481 1140.29C200.955 1138.97 152.169 1121.56 112.224 1090.6C72.2785 1059.63 43.2597 1016.72 29.392 968.121C15.5242 919.518 17.5315 867.758 35.1215 820.375C52.7115 772.992 84.9659 732.461 127.189 704.681V704.681Z" fill="url(#paint0_linear_7_10656)"/>
<path d="M24.2378 903.005C24.2378 934.023 30.2223 964.146 42.0251 992.538C53.4259 1019.96 69.7756 1044.69 90.62 1066.04C100.887 1076.56 112.196 1086.15 124.234 1094.55C136.376 1103.02 149.372 1110.36 162.861 1116.36C190.876 1128.83 220.726 1135.54 251.582 1136.33L251.732 1136.33L251.881 1136.35C256.42 1136.81 261.051 1137.04 265.646 1137.04C277.438 1137.04 289.136 1135.52 300.416 1132.51L300.562 1132.47L300.71 1132.44C327.371 1127.47 352.751 1117.94 376.145 1104.13C399.053 1090.6 419.359 1073.39 436.498 1052.97C453.765 1032.39 467.236 1009.25 476.535 984.187C486.16 958.246 491.039 930.932 491.039 903.005C491.039 884.71 488.916 866.492 484.727 848.859C480.656 831.722 474.61 815.026 466.759 799.235C459.047 783.725 449.569 769.035 438.586 755.572C427.667 742.187 415.244 729.992 401.661 719.326L400.148 718.138V716.214L400.148 166.458C400.148 148.298 396.592 130.684 389.58 114.105C382.806 98.0886 373.107 83.704 360.753 71.3503C348.4 58.9967 334.015 49.2981 317.999 42.524C301.42 35.5116 283.805 31.9559 265.646 31.9559C247.486 31.9559 229.872 35.5116 213.293 42.524C197.277 49.2981 182.892 58.9967 170.538 71.3503C158.185 83.704 148.486 98.0886 141.712 114.105C134.7 130.684 131.144 148.298 131.144 166.458L131.144 704.679V706.81L129.365 707.982C97.7036 728.848 71.3133 757.41 53.0472 790.578C43.7616 807.44 36.5984 825.416 31.7568 844.007C26.7676 863.165 24.2378 883.015 24.2378 903.005ZM20.2819 903.005C20.2819 820.099 62.78 747.126 127.188 704.679L127.188 166.458C127.188 89.9889 189.177 28 265.646 28C342.115 28 404.104 89.9889 404.104 166.458L404.104 716.214C459.442 759.669 494.995 827.188 494.995 903.005C494.995 1019.13 411.603 1115.78 301.436 1136.33C290.018 1139.38 278.024 1141 265.646 1141C260.862 1141 256.14 1140.76 251.481 1140.28C123.236 1137.02 20.2819 1032.04 20.2819 903.005Z" fill="white" fill-opacity="0.5"/>
</g>
<path d="M84.0776 908.399C84.0702 874.92 93.2987 842.088 110.748 813.516C128.196 784.944 153.189 761.739 182.976 746.455V548.41H349.125V746.451C377.883 761.208 402.192 783.357 419.551 810.623C436.911 837.889 446.695 869.286 447.897 901.587C449.099 933.888 441.676 965.926 426.391 994.406C411.106 1022.89 388.511 1046.78 360.929 1063.64C333.347 1080.49 301.774 1089.69 269.457 1090.3C237.139 1090.9 205.244 1082.89 177.051 1067.08C148.857 1051.27 125.384 1028.24 109.043 1000.35C92.7028 972.46 84.0855 940.722 84.0776 908.399V908.399Z" fill="#CF0707"/>
</g>
<defs>
<filter id="filter0_f_7_10656" x="16.2817" y="24" width="482.718" height="1121" filterUnits="userSpaceOnUse" color-interpolation-filters="sRGB">
<feFlood flood-opacity="0" result="BackgroundImageFix"/>
<feBlend mode="normal" in="SourceGraphic" in2="BackgroundImageFix" result="shape"/>
<feGaussianBlur stdDeviation="2" result="effect1_foregroundBlur_7_10656"/>
</filter>
<filter id="filter1_d_7_10656" x="0.281738" y="0" width="534.718" height="1173" filterUnits="userSpaceOnUse" color-interpolation-filters="sRGB">
<feFlood flood-opacity="0" result="BackgroundImageFix"/>
<feColorMatrix in="SourceAlpha" type="matrix" values="0 0 0 0 0 0 0 0 0 0 0 0 0 0 0 0 0 0 127 0" result="hardAlpha"/>
<feOffset dx="10" dy="2"/>
<feGaussianBlur stdDeviation="15"/>
<feColorMatrix type="matrix" values="0 0 0 0 0.258824 0 0 0 0 0.627451 0 0 0 0 0.941176 0 0 0 0.596 0"/>
<feBlend mode="normal" in2="BackgroundImageFix" result="effect1_dropShadow_7_10656"/>
<feBlend mode="normal" in="SourceGraphic" in2="effect1_dropShadow_7_10656" result="shape"/>
</filter>
<linearGradient id="paint0_linear_7_10656" x1="435.186" y1="478.766" x2="-31.8098" y2="589.396" gradientUnits="userSpaceOnUse">
<stop stop-color="white" stop-opacity="0.596"/>
<stop offset="1" stop-color="#F7F7F7" stop-opacity="0.204"/>
</linearGradient>
</defs>
</svg>
