<svg width="714" height="1174" viewBox="0 0 714 1174" fill="none" xmlns="http://www.w3.org/2000/svg">
<g filter="url(#filter0_f_7_10656)">
<path d="M246.213 182.669L246.213 651.383" stroke="#42A0F0" stroke-width="10" stroke-linecap="round"/>
<path d="M245.276 297.244L326.001 213.917" stroke="#42A0F0" stroke-width="10" stroke-linecap="round"/>
<path d="M245.276 297.244L161.948 213.917" stroke="#42A0F0" stroke-width="10" stroke-linecap="round"/>
<path d="M245.276 547.223L326.001 630.551" stroke="#42A0F0" stroke-width="10" stroke-linecap="round"/>
<path d="M245.276 547.223L161.948 630.551" stroke="#42A0F0" stroke-width="10" stroke-linecap="round"/>
<path d="M448.051 301.787L42.1326 536.144" stroke="#42A0F0" stroke-width="10" stroke-linecap="round"/>
<path d="M348.357 358.263L460.883 386.508" stroke="#42A0F0" stroke-width="10" stroke-linecap="round"/>
<path d="M348.357 358.263L378.857 244.435" stroke="#42A0F0" stroke-width="10" stroke-linecap="round"/>
<path d="M131.869 483.252L100.067 594.825" stroke="#42A0F0" stroke-width="10" stroke-linecap="round"/>
<path d="M131.869 483.252L18.0409 452.752" stroke="#42A0F0" stroke-width="10" stroke-linecap="round"/>
<path d="M445.812 536.144L39.8936 301.787" stroke="#42A0F0" stroke-width="10" stroke-linecap="round"/>
<path d="M347.055 478.044L378.857 589.617" stroke="#42A0F0" stroke-width="10" stroke-linecap="round"/>
<path d="M347.055 478.044L460.883 447.544" stroke="#42A0F0" stroke-width="10" stroke-linecap="round"/>
<path d="M130.567 353.054L18.041 381.3" stroke="#42A0F0" stroke-width="10" stroke-linecap="round"/>
<path d="M130.567 353.054L100.067 239.227" stroke="#42A0F0" stroke-width="10" stroke-linecap="round"/>
</g>
<g filter="url(#filter1_f_7_10656)">
<g filter="url(#filter2_d_7_10656)">
<path d="M306.189 704.681L306.189 166.457C306.189 129.736 320.777 94.519 346.743 68.5532C372.708 42.5874 407.926 28 444.647 28C481.368 28 516.585 42.5874 542.551 68.5532C568.517 94.519 583.104 129.736 583.104 166.457L583.104 716.212C619.01 744.373 646.04 782.285 660.957 825.409C675.874 868.534 678.046 915.044 667.214 959.372C656.381 1003.7 633.003 1043.97 599.877 1075.35C566.752 1106.73 525.283 1127.91 480.436 1136.33C464.158 1140.65 447.235 1141.99 430.481 1140.29C379.955 1138.97 331.169 1121.56 291.224 1090.6C251.278 1059.63 222.26 1016.72 208.392 968.121C194.524 919.518 196.531 867.758 214.121 820.375C231.711 772.992 263.966 732.461 306.189 704.681V704.681Z" fill="url(#paint0_linear_7_10656)"/>
<path d="M203.238 903.005C203.238 934.023 209.222 964.146 221.025 992.538C232.426 1019.96 248.776 1044.69 269.62 1066.04C279.887 1076.56 291.196 1086.15 303.234 1094.55C315.376 1103.02 328.372 1110.36 341.861 1116.36C369.876 1128.83 399.726 1135.54 430.582 1136.33L430.732 1136.33L430.881 1136.35C435.42 1136.81 440.051 1137.04 444.646 1137.04C456.438 1137.04 468.136 1135.52 479.416 1132.51L479.562 1132.47L479.71 1132.44C506.371 1127.47 531.751 1117.94 555.145 1104.13C578.053 1090.6 598.359 1073.39 615.498 1052.97C632.765 1032.39 646.236 1009.25 655.535 984.187C665.16 958.246 670.039 930.932 670.039 903.005C670.039 884.71 667.916 866.492 663.727 848.859C659.656 831.722 653.61 815.026 645.759 799.235C638.047 783.725 628.569 769.035 617.586 755.572C606.667 742.187 594.244 729.992 580.661 719.326L579.148 718.138V716.214L579.148 166.458C579.148 148.298 575.592 130.684 568.58 114.105C561.806 98.0886 552.107 83.704 539.753 71.3503C527.4 58.9967 513.015 49.2981 496.999 42.524C480.42 35.5116 462.805 31.9559 444.646 31.9559C426.486 31.9559 408.872 35.5116 392.293 42.524C376.277 49.2981 361.892 58.9967 349.538 71.3503C337.185 83.704 327.486 98.0886 320.712 114.105C313.7 130.684 310.144 148.298 310.144 166.458L310.144 704.679V706.81L308.365 707.982C276.704 728.848 250.313 757.41 232.047 790.578C222.762 807.44 215.598 825.416 210.757 844.007C205.768 863.165 203.238 883.015 203.238 903.005ZM199.282 903.005C199.282 820.099 241.78 747.126 306.188 704.679L306.188 166.458C306.188 89.9889 368.177 28 444.646 28C521.115 28 583.104 89.9889 583.104 166.458L583.104 716.214C638.442 759.669 673.995 827.188 673.995 903.005C673.995 1019.13 590.603 1115.78 480.436 1136.33C469.018 1139.38 457.024 1141 444.646 1141C439.862 1141 435.14 1140.76 430.481 1140.28C302.236 1137.02 199.282 1032.04 199.282 903.005Z" fill="white" fill-opacity="0.5"/>
</g>
<path d="M263.078 908.399C263.07 874.92 272.299 842.088 289.748 813.516C307.196 784.944 332.189 761.739 361.976 746.455V548.41H528.125V746.451C556.883 761.208 581.192 783.357 598.551 810.623C615.911 837.889 625.695 869.286 626.897 901.587C628.099 933.888 620.676 965.926 605.391 994.406C590.106 1022.89 567.511 1046.78 539.929 1063.64C512.347 1080.49 480.774 1089.69 448.457 1090.3C416.139 1090.9 384.244 1082.89 356.051 1067.08C327.857 1051.27 304.384 1028.24 288.043 1000.35C271.703 972.46 263.086 940.722 263.078 908.399V908.399Z" fill="white"/>
</g>
<defs>
<filter id="filter0_f_7_10656" x="9.0397" y="173.669" width="460.844" height="486.714" filterUnits="userSpaceOnUse" color-interpolation-filters="sRGB">
<feFlood flood-opacity="0" result="BackgroundImageFix"/>
<feBlend mode="normal" in="SourceGraphic" in2="BackgroundImageFix" result="shape"/>
<feGaussianBlur stdDeviation="2" result="effect1_foregroundBlur_7_10656"/>
</filter>
<filter id="filter1_f_7_10656" x="195.282" y="24" width="482.718" height="1121" filterUnits="userSpaceOnUse" color-interpolation-filters="sRGB">
<feFlood flood-opacity="0" result="BackgroundImageFix"/>
<feBlend mode="normal" in="SourceGraphic" in2="BackgroundImageFix" result="shape"/>
<feGaussianBlur stdDeviation="2" result="effect1_foregroundBlur_7_10656"/>
</filter>
<filter id="filter2_d_7_10656" x="179.282" y="0" width="534.718" height="1173" filterUnits="userSpaceOnUse" color-interpolation-filters="sRGB">
<feFlood flood-opacity="0" result="BackgroundImageFix"/>
<feColorMatrix in="SourceAlpha" type="matrix" values="0 0 0 0 0 0 0 0 0 0 0 0 0 0 0 0 0 0 127 0" result="hardAlpha"/>
<feOffset dx="10" dy="2"/>
<feGaussianBlur stdDeviation="15"/>
<feColorMatrix type="matrix" values="0 0 0 0 0.258824 0 0 0 0 0.627451 0 0 0 0 0.941176 0 0 0 0.596 0"/>
<feBlend mode="normal" in2="BackgroundImageFix" result="effect1_dropShadow_7_10656"/>
<feBlend mode="normal" in="SourceGraphic" in2="effect1_dropShadow_7_10656" result="shape"/>
</filter>
<linearGradient id="paint0_linear_7_10656" x1="614.186" y1="478.766" x2="147.19" y2="589.396" gradientUnits="userSpaceOnUse">
<stop stop-color="white" stop-opacity="0.596"/>
<stop offset="1" stop-color="#F7F7F7" stop-opacity="0.204"/>
</linearGradient>
</defs>
</svg>
